<svg height="512" viewBox="0 0 128 128" width="512" xmlns="http://www.w3.org/2000/svg"><g><g><path d="m92.546 102.4c-.583 5.219-5.074 9-5.074 9s-3.546-4.68-2.963-9.9 5.074-9 5.074-9 3.546 4.68 2.963 9.9z" fill="#aac348"/><path d="m97.631 107.6c-3.259 4.119-9.072 4.948-9.072 4.948s-.529-5.848 2.731-9.967 9.072-4.947 9.072-4.947.529 5.85-2.731 9.966z" fill="#c7e554"/><g><path d="m48.752 6.5h9v11.688h-9z" fill="#c08e5e"/><path d="m82 98.5c-2.248-18.5-22.748-23.75-22.748-34.5v-48.167h-12v48.167c0 10.75-20.5 16-22.75 34.5-1.639 13.472 2.569 23 28.75 23s30.388-9.528 28.748-23z" fill="#eaeaf0"/><path d="m53.25 121.5c-26.18 0-30.39-9.53-28.75-23 1.13-9.32 6.9-15.27 12.34-20.27a33 33 0 0 1 21.58.85c4.5 1.59 8.94.56 10.93-1.13 5.53 5.05 11.5 11.06 12.65 20.55 1.64 13.47-2.57 23-28.75 23z" fill="#f3d232"/><rect fill="#e2a76f" height="6" rx="3" width="19.5" x="43.502" y="12.833"/></g><ellipse cx="85.557" cy="113.798" fill="#c08e5e" rx="9.5" ry="7" transform="matrix(.866 -.5 .5 .866 -45.437 58.025)"/><ellipse cx="95.117" cy="113.515" fill="#e2a76f" rx="7" ry="9.5" transform="matrix(.598 -.801 .801 .598 -52.746 121.848)"/></g><g fill="#190d28"><path d="m59.25 38.75a1.749 1.749 0 0 0 -1.75 1.75v3.333a1.75 1.75 0 0 0 3.5 0v-3.333a1.749 1.749 0 0 0 -1.75-1.75z"/><path d="m30.669 97.487a1.754 1.754 0 0 0 -1.948 1.527 26.407 26.407 0 0 0 -.061 7.26 1.749 1.749 0 1 0 3.455-.552 23.166 23.166 0 0 1 .08-6.286 1.75 1.75 0 0 0 -1.526-1.949z"/><path d="m100.351 106.5a13.133 13.133 0 0 0 -7.646-2.723h-.066c-.021 0-.04 0-.06 0 .028-.037.053-.078.082-.115a12.482 12.482 0 0 1 5.929-3.782c-.019.232-.043.477-.075.732a1.75 1.75 0 1 0 3.472.435 18.417 18.417 0 0 0 .117-3.566 1.753 1.753 0 0 0 -1.991-1.574 19.191 19.191 0 0 0 -6.123 2.181 19.123 19.123 0 0 0 -3.015-6.646 1.752 1.752 0 0 0 -2.522-.281 18.869 18.869 0 0 0 -4.784 6.686c-1.327-9.67-7.208-15.773-13.14-21.19l-1.28-1.157c-4.427-4.007-8.249-7.465-8.249-11.5v-14a1.75 1.75 0 0 0 -3.5 0v14c0 5.374 4.224 9.4 8.847 13.59a11.5 11.5 0 0 1 -7.347-.157 35.4 35.4 0 0 0 -16.352-2.16c3.542-3.408 6.352-6.894 6.352-11.273v-43.417h8.5v13.167a1.75 1.75 0 0 0 3.5 0v-13.277a4.748 4.748 0 0 0 -1-9.39h-.5v-4.583a1.749 1.749 0 0 0 -1.75-1.75h-9a1.749 1.749 0 0 0 -1.75 1.75v4.583h-.5a4.748 4.748 0 0 0 -1 9.389v43.528c0 4.036-3.828 7.5-8.26 11.5q-.782.708-1.585 1.439c-5.61 5.158-11.7 11.487-12.892 21.346-.6 4.92-.863 12.062 3.744 17.264 4.588 5.179 13.336 7.7 26.743 7.7 10.017 0 17.372-1.385 22.369-4.221.065.131.121.266.194.394 1.434 2.489 4.263 3.806 7.458 3.806a13.487 13.487 0 0 0 6.673-1.859c.213-.125.408-.254.606-.382a12.937 12.937 0 0 0 6.98 2.262h.07a7.876 7.876 0 0 0 6.536-3.006c2.883-3.865 1.185-10.03-3.785-13.743zm-49.851-98.25h5.5v2.833h-5.5zm-4 6.333h13.5a1.25 1.25 0 1 1 0 2.5h-.723c-.01 0-.019 0-.029 0s-.019 0-.029 0h-11.94c-.01 0-.019 0-.029 0s-.019 0-.029 0h-.721a1.25 1.25 0 0 1 0-2.5zm39.747 87.11a12.458 12.458 0 0 1 3.019-6.358 13.708 13.708 0 0 1 1.559 5.148 12.273 12.273 0 0 0 -.909 1.011 13.076 13.076 0 0 0 -1.705 2.876 11.749 11.749 0 0 0 -1.848.083 9.731 9.731 0 0 1 -.114-2.76zm-57.12 11.538c-2.831-3.2-3.723-7.675-2.89-14.52 1.031-8.511 6.191-14.018 11.463-18.895a31.344 31.344 0 0 1 20.134.917 15.467 15.467 0 0 0 5.142.881 13.13 13.13 0 0 0 6.19-1.45c5.184 4.829 10.1 10.33 11.094 18.546a28.624 28.624 0 0 1 .015 8.082 12.84 12.84 0 0 0 -4.617 5.379 9.217 9.217 0 0 0 -.777 3.2c-4.383 2.943-11.472 4.379-21.634 4.379-12.347 0-20.234-2.133-24.12-6.519zm49.72 4.445a4.508 4.508 0 0 1 .021-4.1 9.6 9.6 0 0 1 4.071-4.319 10.8 10.8 0 0 1 2.334-1.015 8.3 8.3 0 0 0 -.174 5.735 12.336 12.336 0 0 0 2.656 4.6c-3.546 1.834-7.546 1.465-8.908-.901zm22.481.474a4.516 4.516 0 0 1 -3.776 1.6 10.292 10.292 0 0 1 -9.1-6.794 4.058 4.058 0 0 1 4.192-5.676h.044a9.613 9.613 0 0 1 5.573 2.028c3.363 2.512 4.769 6.562 3.067 8.842z"/></g></g></svg>