<svg height="398pt" viewBox="-7 0 398 398.112" width="398pt" xmlns="http://www.w3.org/2000/svg"><path d="m153.871094 78.113281-19.417969 11.71875-30.398437-3.71875-14.183594-8 2.726562-8.191406c3.460938-10.382813 4.332032-21.449219 2.535156-32.242187-1.3125-7.859376.902344-15.898438 6.050782-21.980469 5.152344-6.082031 12.71875-9.585938 20.6875-9.585938s15.535156 3.503907 20.683594 9.585938c5.148437 6.082031 7.363281 14.121093 6.050781 21.980469-1.792969 10.792968-.925781 21.859374 2.535156 32.242187zm0 0" fill="#3b869e"/><path d="m346.988281 242.113281-11.78125 23.550781c-1.359375 2.707032-4.125 4.414063-7.152343 4.414063-3.027344 0-5.796876-1.707031-7.152344-4.414063l-11.785156-23.550781c-3.324219-6.660156-5.058594-14-5.0625-21.441406v-124.671875h48v124.671875c-.007813 7.441406-1.738282 14.78125-5.066407 21.441406zm0 0" fill="#e4e4e2"/><path d="m360.054688 72-18.863282 11.777344-21.136718-3.777344-24-8 2.726562-8.191406c3.460938-10.378906 4.332031-21.449219 2.535156-32.242188-1.3125-7.859375.902344-15.898437 6.050782-21.980468 5.152343-6.082032 12.71875-9.585938 20.6875-9.585938s15.535156 3.503906 20.683593 9.585938c5.152344 6.082031 7.363281 14.121093 6.050781 21.980468-1.792968 10.792969-.921874 21.863282 2.535157 32.242188zm0 0" fill="#de8021"/><path d="m243.492188 296.121094-2.636719-42.242188c-2.503907-40.054687-25.027344-76.148437-59.90625-96-16.488281-9.035156-26.832031-26.246094-27.078125-45.046875v-2.71875h-64v2.679688c-.25 18.796875-10.59375 36.011719-27.082032 45.046875-34.878906 19.851562-57.402343 55.945312-59.902343 96l-2.640625 42.238281c-1.664063 26.457031 7.679687 52.425781 25.828125 71.75 18.144531 19.320313 43.472656 30.285156 69.980469 30.285156h51.613281c26.503906 0 51.832031-10.953125 69.976562-30.265625 18.148438-19.316406 27.503907-45.277344 25.847657-71.726562zm0 0" fill="#ebebeb"/><path d="m2.886719 253.878906-2.640625 42.242188c-.808594 12.894531 1.003906 25.816406 5.328125 37.992187h232.589843c4.324219-12.175781 6.136719-25.097656 5.328126-37.992187l-2.636719-42.242188c-1.882813-30.464844-15.429688-59.03125-37.824219-79.765625h-162.320312c-22.398438 20.734375-35.945313 49.300781-37.824219 79.765625zm0 0" fill="#fbb540"/><path d="m138.988281 248.246094-11.78125 23.554687c-1.359375 2.707031-4.125 4.414063-7.152343 4.414063-3.027344 0-5.796876-1.707032-7.152344-4.414063l-11.785156-23.554687c-3.328126-6.664063-5.0625-14.011719-5.0625-21.460938v-124.671875h48v124.671875c-.003907 7.449219-1.734376 14.796875-5.066407 21.460938zm0 0" fill="#dededc"/><path d="m112.902344 271.800781c1.355468 2.707031 4.125 4.414063 7.152344 4.414063 3.027343 0 5.792968-1.707032 7.152343-4.414063l11.78125-23.554687c3.332031-6.664063 5.0625-14.011719 5.066407-21.460938v-52.671875h-48v52.671875c0 7.449219 1.734374 14.796875 5.0625 21.460938zm0 0" fill="#ea9d2d"/><path d="m5.574219 334.113281c13.558593 38.34375 49.808593 63.984375 90.480469 64h51.632812c40.671875-.015625 76.921875-25.65625 90.476562-64zm0 0" fill="#dededc"/><path d="m81.871094 78.113281h80c8.835937 0 16 7.164063 16 16 0 8.835938-7.164063 16-16 16h-80c-8.839844 0-16-7.164062-16-16 0-8.835937 7.160156-16 16-16zm0 0" fill="#69b0bb"/><path d="m288.054688 72h80c8.835937 0 16 7.164062 16 16s-7.164063 16-16 16h-80c-8.835938 0-16-7.164062-16-16s7.164062-16 16-16zm0 0" fill="#fd9226"/><path d="m328.054688 398.113281c-17.675782 0-32-14.328125-32-32 0-10.433593 3.085937-20.632812 8.871093-29.3125l23.128907-34.6875 23.128906 34.6875c5.78125 8.679688 8.871094 18.878907 8.871094 29.3125 0 17.671875-14.328126 32-32 32zm0 0" fill="#f3af3e"/><path d="m32.054688 270.113281c-4.417969 0-8-3.582031-8-8v-6.089843c-.011719-13.261719 3.914062-26.226563 11.277343-37.253907l6.066407-9.097656c2.453124-3.675781 7.417968-4.667969 11.09375-2.214844 3.675781 2.449219 4.667968 7.417969 2.21875 11.09375l-6.066407 9.089844c-5.609375 8.402344-8.601562 18.28125-8.589843 28.382813v6.089843c0 4.417969-3.582032 8-8 8zm0 0" fill="#ffe5b9"/><path d="m32.054688 310.113281c-4.417969 0-8-3.582031-8-8v-8c0-4.417969 3.582031-8 8-8 4.417968 0 8 3.582031 8 8v8c0 4.417969-3.582032 8-8 8zm0 0" fill="#ffe5b9"/><g fill="#ebebeb"><path d="m112.054688 358.113281h16v16h-16zm0 0"/><path d="m144.054688 358.113281h16v16h-16zm0 0"/><path d="m176.054688 358.113281v16h35c5.410156-4.777343 10.265624-10.144531 14.480468-16zm0 0"/></g><path d="m304.054688 104h48v19.625h-48zm0 0" fill="#dbdbdb"/><path d="m96.054688 110.113281h48v13.511719h-48zm0 0" fill="#cbcbcb"/></svg>